<?xml version="1.0" encoding="UTF-8" standalone="no"?>
<!DOCTYPE svg PUBLIC "-//W3C//DTD SVG 1.1//EN"
 "http://www.w3.org/Graphics/SVG/1.1/DTD/svg11.dtd">
<!-- Generated by graphviz version 2.43.0 (0)
 -->
<!-- Title: %3 Pages: 1 -->
<svg width="466pt" height="76pt"
 viewBox="0.00 0.00 466.00 76.00" xmlns="http://www.w3.org/2000/svg" xmlns:xlink="http://www.w3.org/1999/xlink">
<g id="graph0" class="graph" transform="scale(1 1) rotate(0) translate(4 72)">
<title>%3</title>
<polygon fill="yellow" stroke="transparent" points="-4,4 -4,-72 462,-72 462,4 -4,4"/>
<g id="clust1" class="cluster">
<title>cluster_a</title>
<polygon fill="red" stroke="red" points="8,-8 8,-60 150,-60 150,-8 8,-8"/>
</g>
<g id="clust2" class="cluster">
<title>cluster_b</title>
<polygon fill="red" stroke="black" points="158,-8 158,-60 300,-60 300,-8 158,-8"/>
</g>
<g id="clust3" class="cluster">
<title>cluster_c</title>
<polygon fill="green" stroke="green" points="308,-8 308,-60 450,-60 450,-8 308,-8"/>
</g>
<!-- A -->
<g id="node1" class="node">
<title>A</title>
<ellipse fill="blue" stroke="blue" cx="115" cy="-34" rx="27" ry="18"/>
<text text-anchor="middle" x="115" y="-30.3" font-family="Times,serif" font-size="14.00">A</text>
</g>
<!-- B -->
<g id="node2" class="node">
<title>B</title>
<ellipse fill="pink" stroke="pink" cx="43" cy="-34" rx="27" ry="18"/>
<text text-anchor="middle" x="43" y="-30.3" font-family="Times,serif" font-size="14.00">B</text>
</g>
<!-- C -->
<g id="node3" class="node">
<title>C</title>
<ellipse fill="blue" stroke="blue" cx="265" cy="-34" rx="27" ry="18"/>
<text text-anchor="middle" x="265" y="-30.3" font-family="Times,serif" font-size="14.00">C</text>
</g>
<!-- D -->
<g id="node4" class="node">
<title>D</title>
<ellipse fill="pink" stroke="pink" cx="193" cy="-34" rx="27" ry="18"/>
<text text-anchor="middle" x="193" y="-30.3" font-family="Times,serif" font-size="14.00">D</text>
</g>
<!-- E -->
<g id="node5" class="node">
<title>E</title>
<ellipse fill="blue" stroke="blue" cx="415" cy="-34" rx="27" ry="18"/>
<text text-anchor="middle" x="415" y="-30.3" font-family="Times,serif" font-size="14.00">E</text>
</g>
<!-- F -->
<g id="node6" class="node">
<title>F</title>
<ellipse fill="pink" stroke="pink" cx="343" cy="-34" rx="27" ry="18"/>
<text text-anchor="middle" x="343" y="-30.3" font-family="Times,serif" font-size="14.00">F</text>
</g>
</g>
</svg>
