<?xml version="1.0" encoding="UTF-8" standalone="no"?>
<!DOCTYPE svg PUBLIC "-//W3C//DTD SVG 1.1//EN"
 "http://www.w3.org/Graphics/SVG/1.1/DTD/svg11.dtd">
<!-- Generated by graphviz version 2.43.0 (0)
 -->
<!-- Title: %3 Pages: 1 -->
<svg width="541pt" height="152pt"
 viewBox="0.00 0.00 541.00 152.00" xmlns="http://www.w3.org/2000/svg" xmlns:xlink="http://www.w3.org/1999/xlink">
<g id="graph0" class="graph" transform="scale(1 1) rotate(0) translate(4 148)">
<title>%3</title>
<polygon fill="white" stroke="transparent" points="-4,4 -4,-148 537,-148 537,4 -4,4"/>
<!-- 1\n2\n3\n4\n5\n6 -->
<g id="node1" class="node">
<title>1\n2\n3\n4\n5\n6</title>
<ellipse fill="none" stroke="black" cx="27" cy="-72" rx="27" ry="69.09"/>
<text text-anchor="middle" x="27" y="-105.8" font-family="Times,serif" font-size="14.00">1</text>
<text text-anchor="middle" x="27" y="-90.8" font-family="Times,serif" font-size="14.00">2</text>
<text text-anchor="middle" x="27" y="-75.8" font-family="Times,serif" font-size="14.00">3</text>
<text text-anchor="middle" x="27" y="-60.8" font-family="Times,serif" font-size="14.00">4</text>
<text text-anchor="middle" x="27" y="-45.8" font-family="Times,serif" font-size="14.00">5</text>
<text text-anchor="middle" x="27" y="-30.8" font-family="Times,serif" font-size="14.00">6</text>
</g>
<g id="node2" class="node">
<title></title>
<ellipse fill="none" stroke="black" cx="99" cy="-72" rx="27" ry="9"/>
</g>
<!-- 0.25 -->
<g id="node3" class="node">
<title>0.25</title>
<ellipse fill="none" stroke="black" cx="178" cy="-72" rx="33.88" ry="16.03"/>
<text text-anchor="middle" x="178" y="-68.3" font-family="Times,serif" font-size="14.00">0.25</text>
</g>
<!-- default -->
<g id="node4" class="node">
<title>default</title>
<ellipse fill="none" stroke="black" cx="273" cy="-72" rx="43.59" ry="18"/>
<text text-anchor="middle" x="273" y="-68.3" font-family="Times,serif" font-size="14.00">default</text>
</g>
<!-- 0.5 -->
<g id="node5" class="node">
<title>0.5</title>
<ellipse fill="none" stroke="black" cx="362" cy="-72" rx="27" ry="18"/>
<text text-anchor="middle" x="362" y="-68.3" font-family="Times,serif" font-size="14.00">0.5</text>
</g>
<!-- 1in -->
<g id="node6" class="node">
<title>1in</title>
<ellipse fill="none" stroke="black" cx="434" cy="-72" rx="27" ry="36"/>
<text text-anchor="middle" x="434" y="-68.3" font-family="Times,serif" font-size="14.00">1in</text>
</g>
<!-- 2in -->
<g id="node7" class="node">
<title>2in</title>
<ellipse fill="none" stroke="black" cx="506" cy="-72" rx="27" ry="72"/>
<text text-anchor="middle" x="506" y="-68.3" font-family="Times,serif" font-size="14.00">2in</text>
</g>
</g>
</svg>
